M48
; DRILL file {KiCad 5.1.4+dfsg1-1} date Sat 11 Apr 2020 03:03:10 PM NZST
; FORMAT={-:-/ absolute / inch / decimal}
; #@! TF.CreationDate,2020-04-11T15:03:10+12:00
; #@! TF.GenerationSoftware,Kicad,Pcbnew,5.1.4+dfsg1-1
; #@! TF.FileFunction,Plated,1,2,PTH
FMAT,2
INCH
T1C0.0157
T2C0.0300
T3C0.0315
T4C0.0394
T5C0.0472
T6C0.0512
T7C0.1260
%
G90
G05
T1
X5.1968Y-3.0766
X5.1968Y-3.2234
X5.2Y-1.7
X5.2Y-2.0
X5.2Y-2.2234
X5.2Y-2.3
X5.2Y-2.4
X5.25Y-1.8
X5.25Y-1.9
X5.25Y-2.2
X5.25Y-2.7
X5.25Y-3.45
X5.25Y-3.6
X5.2734Y-3.0766
X5.2873Y-2.15
X5.3Y-1.45
X5.3Y-1.55
X5.3Y-1.65
X5.3Y-1.95
X5.3Y-3.35
X5.3Y-3.4
X5.35Y-3.225
X5.35Y-3.3
X5.3546Y-3.15
X5.4Y-2.45
X5.4Y-2.55
X5.425Y-2.5
X5.4315Y-2.65
X5.45Y-3.85
X5.5Y-1.55
X5.5Y-1.6
X5.5Y-1.85
X5.5Y-3.3
X5.5Y-3.55
X5.5Y-3.65
X5.5Y-3.75
X5.5424Y-1.4924
X5.55Y-1.919
X5.55Y-1.981
X5.55Y-3.0
X5.55Y-3.1
X5.55Y-3.2
X5.6Y-1.3
X5.6Y-2.019
X5.6Y-2.1
X5.6875Y-2.2445
X5.772Y-3.4
X5.8Y-1.619
X5.8222Y-2.0222
X5.825Y-4.4
X5.8405Y-2.3405
X5.85Y-1.35
X5.85Y-2.05
X5.875Y-2.275
X5.925Y-2.2766
X5.95Y-2.6
X5.95Y-3.05
X5.95Y-3.3234
X5.95Y-3.825
X6.025Y-2.9
X6.025Y-3.5
X6.0394Y-2.8
X6.0456Y-1.7796
X6.0484Y-4.0766
X6.25Y-4.6
X6.3Y-3.825
X6.325Y-2.2766
X6.35Y-3.825
X6.35Y-3.975
X6.4Y-3.825
X6.425Y-4.2
X6.625Y-3.825
X6.65Y-1.75
X6.65Y-2.219
X6.675Y-4.35
X6.7Y-1.85
X6.7Y-2.081
X6.8551Y-2.2191
X6.8984Y-2.2234
X6.9Y-2.3
X6.9Y-4.25
X6.9234Y-4.4
X6.925Y-2.05
X6.95Y-2.525
X6.95Y-4.45
X7.15Y-2.219
X7.15Y-2.55
X7.175Y-2.6
X7.175Y-2.6766
X7.175Y-3.3
X7.175Y-3.8
X7.2Y-1.55
X7.225Y-2.35
X7.25Y-2.25
X7.275Y-2.45
X7.3Y-3.2
X7.525Y-4.425
X7.575Y-3.35
X7.625Y-3.4
X7.7Y-3.0
X7.75Y-1.75
X7.75Y-2.75
X7.75Y-3.45
X7.8Y-1.85
X7.8Y-2.65
X7.85Y-1.65
X7.85Y-1.95
X7.85Y-2.55
X7.9Y-2.075
X7.9Y-2.45
X7.95Y-1.7
X7.95Y-2.35
X8.0Y-1.8
X8.0Y-2.25
X8.05Y-1.9
X8.05Y-2.15
X8.1016Y-4.275
T2
X5.75Y-4.675
X5.75Y-4.875
X5.75Y-4.975
X6.1Y-4.375
X6.1Y-4.675
X6.1Y-4.875
T3
X5.95Y-1.35
X5.95Y-1.45
X5.95Y-1.55
X5.95Y-1.65
X5.95Y-1.75
X5.95Y-1.85
X5.95Y-1.95
X5.95Y-2.05
X5.95Y-2.15
X6.25Y-1.35
X6.25Y-1.45
X6.25Y-1.55
X6.25Y-1.65
X6.25Y-1.75
X6.25Y-1.85
X6.25Y-1.95
X6.25Y-2.05
X6.25Y-2.15
X6.7563Y-4.2
X7.15Y-4.2
X7.05Y-1.35
X7.05Y-1.45
X7.05Y-1.55
X7.05Y-1.65
X7.05Y-1.75
X7.05Y-1.85
X7.05Y-1.95
X7.05Y-2.05
X7.05Y-2.15
X7.35Y-1.35
X7.35Y-1.45
X7.35Y-1.55
X7.35Y-1.65
X7.35Y-1.75
X7.35Y-1.85
X7.35Y-1.95
X7.35Y-2.05
X7.35Y-2.15
X6.4563Y-3.2
X6.85Y-3.2
X7.9Y-4.3
X7.9Y-4.4
X7.9Y-4.5
X7.9Y-4.6
X7.9Y-4.7
X7.9Y-4.8
X7.9Y-4.9
X8.2Y-4.3
X8.2Y-4.4
X8.2Y-4.5
X8.2Y-4.6
X8.2Y-4.7
X8.2Y-4.8
X8.2Y-4.9
X7.0Y-2.6
X7.4Y-2.6
X7.35Y-4.3
X7.35Y-4.4
X7.35Y-4.5
X7.35Y-4.6
X7.35Y-4.7
X7.35Y-4.8
X7.35Y-4.9
X7.65Y-4.3
X7.65Y-4.4
X7.65Y-4.5
X7.65Y-4.6
X7.65Y-4.7
X7.65Y-4.8
X7.65Y-4.9
X7.0063Y-4.0
X7.4Y-4.0
X5.7563Y-2.3
X6.15Y-2.3
X7.0Y-3.2
X7.4Y-3.2
X5.35Y-1.25
X5.7437Y-1.25
X6.5571Y-2.4
X6.75Y-2.4
X5.65Y-2.4
X5.65Y-2.5
X5.65Y-2.6
X5.65Y-2.7
X5.65Y-2.8
X5.65Y-2.9
X5.65Y-3.0
X5.65Y-3.1
X5.65Y-3.2
X5.65Y-3.3
X5.65Y-3.4
X5.65Y-3.5
X5.65Y-3.6
X5.65Y-3.7
X6.25Y-2.4
X6.25Y-2.5
X6.25Y-2.6
X6.25Y-2.7
X6.25Y-2.8
X6.25Y-2.9
X6.25Y-3.0
X6.25Y-3.1
X6.25Y-3.2
X6.25Y-3.3
X6.25Y-3.4
X6.25Y-3.5
X6.25Y-3.6
X6.25Y-3.7
X7.9Y-3.45
X7.9Y-3.55
X7.9Y-3.65
X7.9Y-3.75
X7.9Y-3.85
X7.9Y-3.95
X7.9Y-4.05
X8.2Y-3.45
X8.2Y-3.55
X8.2Y-3.65
X8.2Y-3.75
X8.2Y-3.85
X8.2Y-3.95
X8.2Y-4.05
X7.0Y-3.4
X7.4Y-3.4
X7.0Y-3.0
X7.4Y-3.0
X7.7063Y-1.25
X8.1Y-1.25
X7.6Y-1.35
X7.6Y-1.45
X7.6Y-1.55
X7.6Y-1.65
X7.6Y-1.75
X7.6Y-1.85
X7.6Y-1.95
X7.6Y-2.05
X7.6Y-2.15
X7.6Y-2.25
X7.6Y-2.35
X7.6Y-2.45
X7.6Y-2.55
X7.6Y-2.65
X7.6Y-2.75
X7.6Y-2.85
X7.6Y-2.95
X7.6Y-3.05
X7.6Y-3.15
X7.6Y-3.25
X8.2Y-1.35
X8.2Y-1.45
X8.2Y-1.55
X8.2Y-1.65
X8.2Y-1.75
X8.2Y-1.85
X8.2Y-1.95
X8.2Y-2.05
X8.2Y-2.15
X8.2Y-2.25
X8.2Y-2.35
X8.2Y-2.45
X8.2Y-2.55
X8.2Y-2.65
X8.2Y-2.75
X8.2Y-2.85
X8.2Y-2.95
X8.2Y-3.05
X8.2Y-3.15
X8.2Y-3.25
X7.0Y-2.8
X7.4Y-2.8
X6.5Y-1.35
X6.5Y-1.45
X6.5Y-1.55
X6.5Y-1.65
X6.5Y-1.75
X6.5Y-1.85
X6.5Y-1.95
X6.5Y-2.05
X6.5Y-2.15
X6.8Y-1.35
X6.8Y-1.45
X6.8Y-1.55
X6.8Y-1.65
X6.8Y-1.75
X6.8Y-1.85
X6.8Y-1.95
X6.8Y-2.05
X6.8Y-2.15
X5.9063Y-1.25
X6.3Y-1.25
X6.45Y-1.25
X6.8437Y-1.25
X6.5Y-3.35
X6.5Y-3.45
X6.5Y-3.55
X6.5Y-3.65
X6.5Y-3.75
X6.5Y-3.85
X6.5Y-3.95
X6.5Y-4.05
X6.8Y-3.35
X6.8Y-3.45
X6.8Y-3.55
X6.8Y-3.65
X6.8Y-3.75
X6.8Y-3.85
X6.8Y-3.95
X6.8Y-4.05
X5.4Y-1.35
X5.4Y-1.45
X5.4Y-1.55
X5.4Y-1.65
X5.4Y-1.75
X5.4Y-1.85
X5.4Y-1.95
X5.4Y-2.05
X5.4Y-2.15
X5.7Y-1.35
X5.7Y-1.45
X5.7Y-1.55
X5.7Y-1.65
X5.7Y-1.75
X5.7Y-1.85
X5.7Y-1.95
X5.7Y-2.05
X5.7Y-2.15
X6.8Y-4.3
X6.8Y-4.4
X6.8Y-4.5
X6.8Y-4.6
X6.8Y-4.7
X6.8Y-4.8
X6.8Y-4.9
X7.1Y-4.3
X7.1Y-4.4
X7.1Y-4.5
X7.1Y-4.6
X7.1Y-4.7
X7.1Y-4.8
X7.1Y-4.9
X6.2063Y-4.2
X6.6Y-4.2
X7.3063Y-4.2
X7.7Y-4.2
X6.25Y-4.3
X6.25Y-4.4
X6.25Y-4.5
X6.25Y-4.6
X6.25Y-4.7
X6.25Y-4.8
X6.25Y-4.9
X6.55Y-4.3
X6.55Y-4.4
X6.55Y-4.5
X6.55Y-4.6
X6.55Y-4.7
X6.55Y-4.8
X6.55Y-4.9
X7.0063Y-3.8
X7.4Y-3.8
X7.0063Y-1.25
X7.4Y-1.25
T4
X8.45Y-1.8185
X8.45Y-1.9276
X8.45Y-2.0366
X8.45Y-2.1457
X8.45Y-2.2547
X8.45Y-2.3638
X8.45Y-2.4728
X8.45Y-2.5819
X8.45Y-2.6909
X8.45Y-2.8
X8.45Y-2.9091
X8.45Y-3.0181
X8.45Y-3.1272
X8.5618Y-1.873
X8.5618Y-1.9821
X8.5618Y-2.0911
X8.5618Y-2.2002
X8.5618Y-2.3093
X8.5618Y-2.4183
X8.5618Y-2.5274
X8.5618Y-2.6364
X8.5618Y-2.7455
X8.5618Y-2.8545
X8.5618Y-2.9636
X8.5618Y-3.0726
X8.45Y-4.0
X8.45Y-4.1091
X8.45Y-4.2181
X8.45Y-4.3272
X8.45Y-4.4362
X8.5618Y-4.0545
X8.5618Y-4.1636
X8.5618Y-4.2726
X8.5618Y-4.3817
T5
X6.05Y-3.85
X6.05Y-4.25
X5.825Y-3.85
X5.825Y-4.25
T6
X5.45Y-3.975
X5.45Y-4.2703
X5.45Y-4.5656
X5.45Y-4.8608
T7
X8.4618Y-1.5457
X8.4618Y-3.4
X8.4618Y-3.726
X8.4618Y-4.7102
T0
M30
